<mxfile host="app.diagrams.net" agent="Mozilla/5.0 (Windows NT 10.0; Win64; x64) AppleWebKit/537.36 (KHTML, like Gecko) Chrome/131.0.0.0 Safari/537.36" version="25.0.3">
  <diagram id="YKhcXS4IJp9A0wBSg-0L" name="Page-1">
    <mxGraphModel dx="2284" dy="1880" grid="1" gridSize="10" guides="1" tooltips="1" connect="1" arrows="1" fold="1" page="1" pageScale="1" pageWidth="850" pageHeight="1100" math="0" shadow="0">
      <root>
        <mxCell id="0" />
        <mxCell id="1" parent="0" />
        <mxCell id="JwieALacqzVxdIfjyQ0a-1" value="" style="rounded=0;whiteSpace=wrap;html=1;" parent="1" vertex="1">
          <mxGeometry x="-50" y="-400" width="760" height="900" as="geometry" />
        </mxCell>
        <mxCell id="JwieALacqzVxdIfjyQ0a-2" value="VPC" style="points=[[0,0],[0.25,0],[0.5,0],[0.75,0],[1,0],[1,0.25],[1,0.5],[1,0.75],[1,1],[0.75,1],[0.5,1],[0.25,1],[0,1],[0,0.75],[0,0.5],[0,0.25]];outlineConnect=0;gradientColor=none;html=1;whiteSpace=wrap;fontSize=12;fontStyle=0;container=1;pointerEvents=0;collapsible=0;recursiveResize=0;shape=mxgraph.aws4.group;grIcon=mxgraph.aws4.group_vpc2;strokeColor=#8C4FFF;fillColor=none;verticalAlign=top;align=left;spacingLeft=30;fontColor=#AAB7B8;dashed=0;" parent="1" vertex="1">
          <mxGeometry x="-30" y="-200" width="720" height="680" as="geometry" />
        </mxCell>
        <mxCell id="JwieALacqzVxdIfjyQ0a-3" value="Availability Zone A" style="fillColor=none;strokeColor=#147EBA;dashed=1;verticalAlign=top;fontStyle=0;fontColor=#147EBA;whiteSpace=wrap;html=1;" parent="JwieALacqzVxdIfjyQ0a-2" vertex="1">
          <mxGeometry x="60" y="80" width="200" height="580" as="geometry" />
        </mxCell>
        <mxCell id="JwieALacqzVxdIfjyQ0a-4" value="Availability Zone B" style="fillColor=none;strokeColor=#147EBA;dashed=1;verticalAlign=top;fontStyle=0;fontColor=#147EBA;whiteSpace=wrap;html=1;" parent="JwieALacqzVxdIfjyQ0a-2" vertex="1">
          <mxGeometry x="470" y="80" width="200" height="580" as="geometry" />
        </mxCell>
        <mxCell id="JwieALacqzVxdIfjyQ0a-7" value="Public LB" style="sketch=0;outlineConnect=0;fontColor=#232F3E;gradientColor=none;fillColor=#8C4FFF;strokeColor=none;dashed=0;verticalLabelPosition=bottom;verticalAlign=top;align=center;html=1;fontSize=12;fontStyle=0;aspect=fixed;pointerEvents=1;shape=mxgraph.aws4.application_load_balancer;" parent="JwieALacqzVxdIfjyQ0a-2" vertex="1">
          <mxGeometry x="339.5" y="200" width="50" height="50" as="geometry" />
        </mxCell>
        <mxCell id="JwieALacqzVxdIfjyQ0a-20" style="edgeStyle=orthogonalEdgeStyle;rounded=0;orthogonalLoop=1;jettySize=auto;html=1;" parent="JwieALacqzVxdIfjyQ0a-2" source="JwieALacqzVxdIfjyQ0a-8" target="JwieALacqzVxdIfjyQ0a-7" edge="1">
          <mxGeometry relative="1" as="geometry" />
        </mxCell>
        <mxCell id="JwieALacqzVxdIfjyQ0a-8" value="WAF" style="sketch=0;points=[[0,0,0],[0.25,0,0],[0.5,0,0],[0.75,0,0],[1,0,0],[0,1,0],[0.25,1,0],[0.5,1,0],[0.75,1,0],[1,1,0],[0,0.25,0],[0,0.5,0],[0,0.75,0],[1,0.25,0],[1,0.5,0],[1,0.75,0]];outlineConnect=0;fontColor=#232F3E;fillColor=#DD344C;strokeColor=#ffffff;dashed=0;verticalLabelPosition=bottom;verticalAlign=top;align=center;html=1;fontSize=12;fontStyle=0;aspect=fixed;shape=mxgraph.aws4.resourceIcon;resIcon=mxgraph.aws4.waf;" parent="JwieALacqzVxdIfjyQ0a-2" vertex="1">
          <mxGeometry x="325.5" y="80" width="78" height="78" as="geometry" />
        </mxCell>
        <mxCell id="JwieALacqzVxdIfjyQ0a-10" value="Public subnet" style="points=[[0,0],[0.25,0],[0.5,0],[0.75,0],[1,0],[1,0.25],[1,0.5],[1,0.75],[1,1],[0.75,1],[0.5,1],[0.25,1],[0,1],[0,0.75],[0,0.5],[0,0.25]];outlineConnect=0;gradientColor=none;html=1;whiteSpace=wrap;fontSize=12;fontStyle=0;container=1;pointerEvents=0;collapsible=0;recursiveResize=0;shape=mxgraph.aws4.group;grIcon=mxgraph.aws4.group_security_group;grStroke=0;strokeColor=#7AA116;fillColor=#F2F6E8;verticalAlign=top;align=left;spacingLeft=30;fontColor=#248814;dashed=0;" parent="JwieALacqzVxdIfjyQ0a-2" vertex="1">
          <mxGeometry x="505" y="174" width="130" height="130" as="geometry" />
        </mxCell>
        <mxCell id="JwieALacqzVxdIfjyQ0a-9" value="Public subnet" style="points=[[0,0],[0.25,0],[0.5,0],[0.75,0],[1,0],[1,0.25],[1,0.5],[1,0.75],[1,1],[0.75,1],[0.5,1],[0.25,1],[0,1],[0,0.75],[0,0.5],[0,0.25]];outlineConnect=0;gradientColor=none;html=1;whiteSpace=wrap;fontSize=12;fontStyle=0;container=1;pointerEvents=0;collapsible=0;recursiveResize=0;shape=mxgraph.aws4.group;grIcon=mxgraph.aws4.group_security_group;grStroke=0;strokeColor=#7AA116;fillColor=#F2F6E8;verticalAlign=top;align=left;spacingLeft=30;fontColor=#248814;dashed=0;" parent="JwieALacqzVxdIfjyQ0a-2" vertex="1">
          <mxGeometry x="95" y="174" width="130" height="130" as="geometry" />
        </mxCell>
        <mxCell id="JwieALacqzVxdIfjyQ0a-11" value="Private subnet" style="points=[[0,0],[0.25,0],[0.5,0],[0.75,0],[1,0],[1,0.25],[1,0.5],[1,0.75],[1,1],[0.75,1],[0.5,1],[0.25,1],[0,1],[0,0.75],[0,0.5],[0,0.25]];outlineConnect=0;gradientColor=none;html=1;whiteSpace=wrap;fontSize=12;fontStyle=0;container=1;pointerEvents=0;collapsible=0;recursiveResize=0;shape=mxgraph.aws4.group;grIcon=mxgraph.aws4.group_security_group;grStroke=0;strokeColor=#00A4A6;fillColor=#E6F6F7;verticalAlign=top;align=left;spacingLeft=30;fontColor=#147EBA;dashed=0;" parent="JwieALacqzVxdIfjyQ0a-2" vertex="1">
          <mxGeometry x="95" y="390" width="130" height="210" as="geometry" />
        </mxCell>
        <mxCell id="JwieALacqzVxdIfjyQ0a-12" value="Private subnet" style="points=[[0,0],[0.25,0],[0.5,0],[0.75,0],[1,0],[1,0.25],[1,0.5],[1,0.75],[1,1],[0.75,1],[0.5,1],[0.25,1],[0,1],[0,0.75],[0,0.5],[0,0.25]];outlineConnect=0;gradientColor=none;html=1;whiteSpace=wrap;fontSize=12;fontStyle=0;container=1;pointerEvents=0;collapsible=0;recursiveResize=0;shape=mxgraph.aws4.group;grIcon=mxgraph.aws4.group_security_group;grStroke=0;strokeColor=#00A4A6;fillColor=#E6F6F7;verticalAlign=top;align=left;spacingLeft=30;fontColor=#147EBA;dashed=0;" parent="JwieALacqzVxdIfjyQ0a-2" vertex="1">
          <mxGeometry x="505" y="390" width="130" height="210" as="geometry" />
        </mxCell>
        <mxCell id="JwieALacqzVxdIfjyQ0a-14" value="services 1 &amp;amp; 2" style="sketch=0;outlineConnect=0;fontColor=#232F3E;gradientColor=none;fillColor=#ED7100;strokeColor=none;dashed=0;verticalLabelPosition=bottom;verticalAlign=top;align=center;html=1;fontSize=12;fontStyle=0;aspect=fixed;pointerEvents=1;shape=mxgraph.aws4.ecs_task;" parent="JwieALacqzVxdIfjyQ0a-12" vertex="1">
          <mxGeometry x="46.5" y="140" width="37" height="48" as="geometry" />
        </mxCell>
        <mxCell id="aHpMPrI0Mtsugue8AOiE-4" value="base service" style="sketch=0;outlineConnect=0;fontColor=#232F3E;gradientColor=none;fillColor=#ED7100;strokeColor=none;dashed=0;verticalLabelPosition=bottom;verticalAlign=top;align=center;html=1;fontSize=12;fontStyle=0;aspect=fixed;pointerEvents=1;shape=mxgraph.aws4.ecs_task;" parent="JwieALacqzVxdIfjyQ0a-12" vertex="1">
          <mxGeometry x="46.5" y="40" width="37" height="48" as="geometry" />
        </mxCell>
        <mxCell id="JwieALacqzVxdIfjyQ0a-16" value="ECS Cluster" style="sketch=0;points=[[0,0,0],[0.25,0,0],[0.5,0,0],[0.75,0,0],[1,0,0],[0,1,0],[0.25,1,0],[0.5,1,0],[0.75,1,0],[1,1,0],[0,0.25,0],[0,0.5,0],[0,0.75,0],[1,0.25,0],[1,0.5,0],[1,0.75,0]];outlineConnect=0;fontColor=#232F3E;fillColor=#ED7100;strokeColor=#ffffff;dashed=0;verticalLabelPosition=bottom;verticalAlign=top;align=center;html=1;fontSize=12;fontStyle=0;aspect=fixed;shape=mxgraph.aws4.resourceIcon;resIcon=mxgraph.aws4.ecs;" parent="JwieALacqzVxdIfjyQ0a-2" vertex="1">
          <mxGeometry x="30" y="390" width="28" height="28" as="geometry" />
        </mxCell>
        <mxCell id="JwieALacqzVxdIfjyQ0a-26" style="edgeStyle=orthogonalEdgeStyle;rounded=0;orthogonalLoop=1;jettySize=auto;html=1;entryX=0.5;entryY=0;entryDx=0;entryDy=0;entryPerimeter=0;" parent="JwieALacqzVxdIfjyQ0a-2" target="JwieALacqzVxdIfjyQ0a-8" edge="1">
          <mxGeometry relative="1" as="geometry">
            <mxPoint x="364.5" y="37.99921430198128" as="sourcePoint" />
          </mxGeometry>
        </mxCell>
        <mxCell id="aHpMPrI0Mtsugue8AOiE-2" value="services 1 &amp;amp; 2" style="sketch=0;outlineConnect=0;fontColor=#232F3E;gradientColor=none;fillColor=#ED7100;strokeColor=none;dashed=0;verticalLabelPosition=bottom;verticalAlign=top;align=center;html=1;fontSize=12;fontStyle=0;aspect=fixed;pointerEvents=1;shape=mxgraph.aws4.ecs_task;" parent="JwieALacqzVxdIfjyQ0a-2" vertex="1">
          <mxGeometry x="141.5" y="530" width="37" height="48" as="geometry" />
        </mxCell>
        <mxCell id="aHpMPrI0Mtsugue8AOiE-26" style="edgeStyle=orthogonalEdgeStyle;rounded=0;orthogonalLoop=1;jettySize=auto;html=1;flowAnimation=1;" parent="JwieALacqzVxdIfjyQ0a-2" source="JwieALacqzVxdIfjyQ0a-7" target="aHpMPrI0Mtsugue8AOiE-4" edge="1">
          <mxGeometry relative="1" as="geometry">
            <Array as="points">
              <mxPoint x="570" y="225" />
            </Array>
            <mxPoint x="570" y="420" as="targetPoint" />
          </mxGeometry>
        </mxCell>
        <mxCell id="aHpMPrI0Mtsugue8AOiE-27" style="edgeStyle=orthogonalEdgeStyle;rounded=0;orthogonalLoop=1;jettySize=auto;html=1;flowAnimation=1;" parent="JwieALacqzVxdIfjyQ0a-2" source="JwieALacqzVxdIfjyQ0a-7" edge="1">
          <mxGeometry relative="1" as="geometry">
            <Array as="points">
              <mxPoint x="160" y="225" />
            </Array>
            <mxPoint x="159" y="430" as="targetPoint" />
          </mxGeometry>
        </mxCell>
        <mxCell id="6yQMATOyVu8XpWYHS5QK-8" style="edgeStyle=orthogonalEdgeStyle;rounded=0;orthogonalLoop=1;jettySize=auto;html=1;flowAnimation=1;" edge="1" parent="JwieALacqzVxdIfjyQ0a-2" source="JwieALacqzVxdIfjyQ0a-13" target="6yQMATOyVu8XpWYHS5QK-7">
          <mxGeometry relative="1" as="geometry">
            <Array as="points">
              <mxPoint x="354" y="450" />
            </Array>
          </mxGeometry>
        </mxCell>
        <mxCell id="JwieALacqzVxdIfjyQ0a-13" value="base service" style="sketch=0;outlineConnect=0;fontColor=#232F3E;gradientColor=none;fillColor=#ED7100;strokeColor=none;dashed=0;verticalLabelPosition=bottom;verticalAlign=top;align=center;html=1;fontSize=12;fontStyle=0;aspect=fixed;pointerEvents=1;shape=mxgraph.aws4.ecs_task;" parent="JwieALacqzVxdIfjyQ0a-2" vertex="1">
          <mxGeometry x="141.5" y="431" width="37" height="48" as="geometry" />
        </mxCell>
        <mxCell id="6yQMATOyVu8XpWYHS5QK-6" value="" style="rounded=1;arcSize=10;dashed=1;strokeColor=#000000;fillColor=none;gradientColor=none;strokeWidth=2;dashPattern=1 1;" vertex="1" parent="JwieALacqzVxdIfjyQ0a-2">
          <mxGeometry x="110" y="520" width="510" height="80" as="geometry" />
        </mxCell>
        <mxCell id="6yQMATOyVu8XpWYHS5QK-7" value="Cloud Map" style="sketch=0;points=[[0,0,0],[0.25,0,0],[0.5,0,0],[0.75,0,0],[1,0,0],[0,1,0],[0.25,1,0],[0.5,1,0],[0.75,1,0],[1,1,0],[0,0.25,0],[0,0.5,0],[0,0.75,0],[1,0.25,0],[1,0.5,0],[1,0.75,0]];outlineConnect=0;fontColor=#232F3E;fillColor=#8C4FFF;strokeColor=#ffffff;dashed=0;verticalLabelPosition=bottom;verticalAlign=top;align=center;html=1;fontSize=12;fontStyle=0;aspect=fixed;shape=mxgraph.aws4.resourceIcon;resIcon=mxgraph.aws4.cloud_map;" vertex="1" parent="JwieALacqzVxdIfjyQ0a-2">
          <mxGeometry x="339.5" y="510" width="29" height="29" as="geometry" />
        </mxCell>
        <mxCell id="6yQMATOyVu8XpWYHS5QK-10" style="edgeStyle=orthogonalEdgeStyle;rounded=0;orthogonalLoop=1;jettySize=auto;html=1;entryX=0.5;entryY=0;entryDx=0;entryDy=0;entryPerimeter=0;flowAnimation=1;" edge="1" parent="JwieALacqzVxdIfjyQ0a-2" source="aHpMPrI0Mtsugue8AOiE-4" target="6yQMATOyVu8XpWYHS5QK-7">
          <mxGeometry relative="1" as="geometry">
            <Array as="points">
              <mxPoint x="354" y="450" />
            </Array>
          </mxGeometry>
        </mxCell>
        <mxCell id="6yQMATOyVu8XpWYHS5QK-11" value="" style="rounded=1;arcSize=10;dashed=1;strokeColor=#F59D56;fillColor=none;gradientColor=none;dashPattern=8 4;strokeWidth=2;" vertex="1" parent="JwieALacqzVxdIfjyQ0a-2">
          <mxGeometry x="40" y="378.5" width="620" height="241.5" as="geometry" />
        </mxCell>
        <mxCell id="JwieALacqzVxdIfjyQ0a-25" style="edgeStyle=orthogonalEdgeStyle;rounded=0;orthogonalLoop=1;jettySize=auto;html=1;" parent="1" source="JwieALacqzVxdIfjyQ0a-22" edge="1">
          <mxGeometry relative="1" as="geometry">
            <mxPoint x="334.5" y="-230.99921430198128" as="targetPoint" />
          </mxGeometry>
        </mxCell>
        <mxCell id="JwieALacqzVxdIfjyQ0a-22" value="" style="sketch=0;points=[[0,0,0],[0.25,0,0],[0.5,0,0],[0.75,0,0],[1,0,0],[0,1,0],[0.25,1,0],[0.5,1,0],[0.75,1,0],[1,1,0],[0,0.25,0],[0,0.5,0],[0,0.75,0],[1,0.25,0],[1,0.5,0],[1,0.75,0]];outlineConnect=0;fontColor=#232F3E;fillColor=#8C4FFF;strokeColor=#ffffff;dashed=0;verticalLabelPosition=bottom;verticalAlign=top;align=center;html=1;fontSize=12;fontStyle=0;aspect=fixed;shape=mxgraph.aws4.resourceIcon;resIcon=mxgraph.aws4.route_53;" parent="1" vertex="1">
          <mxGeometry x="295.5" y="-380" width="78" height="78" as="geometry" />
        </mxCell>
        <mxCell id="JwieALacqzVxdIfjyQ0a-24" style="edgeStyle=orthogonalEdgeStyle;rounded=0;orthogonalLoop=1;jettySize=auto;html=1;" parent="1" source="JwieALacqzVxdIfjyQ0a-23" target="JwieALacqzVxdIfjyQ0a-22" edge="1">
          <mxGeometry relative="1" as="geometry" />
        </mxCell>
        <mxCell id="JwieALacqzVxdIfjyQ0a-23" value="Users" style="sketch=0;outlineConnect=0;fontColor=#232F3E;gradientColor=none;fillColor=#232F3D;strokeColor=none;dashed=0;verticalLabelPosition=bottom;verticalAlign=top;align=center;html=1;fontSize=12;fontStyle=0;aspect=fixed;pointerEvents=1;shape=mxgraph.aws4.users;" parent="1" vertex="1">
          <mxGeometry x="50" y="-380" width="78" height="78" as="geometry" />
        </mxCell>
        <mxCell id="JwieALacqzVxdIfjyQ0a-29" value="Internet&#xa;gateway" style="sketch=0;outlineConnect=0;fontColor=#232F3E;gradientColor=none;strokeColor=#232F3E;fillColor=#ffffff;dashed=0;verticalLabelPosition=bottom;verticalAlign=top;align=center;html=1;fontSize=12;fontStyle=0;aspect=fixed;shape=mxgraph.aws4.resourceIcon;resIcon=mxgraph.aws4.internet_gateway;" parent="1" vertex="1">
          <mxGeometry x="304.5" y="-240" width="60" height="60" as="geometry" />
        </mxCell>
      </root>
    </mxGraphModel>
  </diagram>
</mxfile>
